# xmcd
#
# Track frame offsets: 
#        150
#        13537
#        22710
#        34405
#        47730
#        59870
#        70562
#        81610
#        93987
#        105345
#        124655
#        136600
#        149702
#        161610
#        174930
#        188450
#        202157
#        215847
#        230935
#        244195
#
# Disc length: 3415 seconds
#
# Revision: 7
# Processed by: cddbd v1.5.2PL0 Copyright (c) Steve Scherf et al.
# Submitted via: ExactAudioCopy v1.0b1
#
DISCID=1f0d5514
DTITLE=Tammy Wynette - Anniversary: Twenty Years Of Hits
DYEAR=1987
DGENRE=Country
TTITLE0=Apartment #9
TTITLE1=Your Good Girl's Gonna Go Bad
TTITLE2=I Don't Wanna Play House
TTITLE3=D-I-V-O-R-C-E
TTITLE4=Stand By Your Man
TTITLE5=Singing My Song
TTITLE6=Run, Woman, Run
TTITLE7=We Sure Can Love Each Other
TTITLE8=Good Lovin' (Makes It Right)
TTITLE9=Bedtime Story
TTITLE10='Til I Get It Right
TTITLE11=Kids Say The Darndest Things
TTITLE12=Another Lonely Song
TTITLE13=We're Gonna Hold On
TTITLE14=Woman To Woman
TTITLE15='Til I Can Make It On My Own
TTITLE16=Golden Ring
TTITLE17=You And Me
TTITLE18=One Of A Kind
TTITLE19=Two Story House
EXTD=YEAR: 0
EXTT0=
EXTT1=
EXTT2=
EXTT3=
EXTT4=
EXTT5=
EXTT6=
EXTT7=
EXTT8=
EXTT9=
EXTT10=
EXTT11=
EXTT12=
EXTT13=
EXTT14=
EXTT15=
EXTT16=
EXTT17=
EXTT18=
EXTT19=
PLAYORDER=
